<?xml version="1.0" encoding="UTF-8"?>
<!DOCTYPE svg PUBLIC "-//W3C//DTD SVG 1.1//EN" "http://www.w3.org/Graphics/SVG/1.1/DTD/svg11.dtd">
<!-- Creator: CorelDRAW 2019 (64-Bit) -->
<svg xmlns="http://www.w3.org/2000/svg" xml:space="preserve" width="1533px" height="1533px" version="1.1" style="shape-rendering:geometricPrecision; text-rendering:geometricPrecision; image-rendering:optimizeQuality; fill-rule:evenodd; clip-rule:evenodd"
viewBox="0 0 278.39 278.39"
 xmlns:xlink="http://www.w3.org/1999/xlink"
 xmlns:xodm="http://www.corel.com/coreldraw/odm/2003">
 <defs>
  <style type="text/css">
   <![CDATA[
    .fil0 {fill:url(#id0)}
   ]]>
  </style>
  <linearGradient id="id0" gradientUnits="userSpaceOnUse" x1="130.71" y1="278.13" x2="147.68" y2="0.26">
   <stop offset="0" style="stop-opacity:1; stop-color:#BA882C"/>
   <stop offset="0.360784" style="stop-opacity:1; stop-color:#CDA919"/>
   <stop offset="1" style="stop-opacity:1; stop-color:#E0CA06"/>
  </linearGradient>
 </defs>
 <g id="Layer_x0020_1">
  <metadata id="CorelCorpID_0Corel-Layer"/>
  <path class="fil0" d="M139.2 0c76.87,0 139.19,62.32 139.19,139.2 0,76.87 -62.32,139.19 -139.19,139.19 -76.88,0 -139.2,-62.32 -139.2,-139.19 0,-76.88 62.32,-139.2 139.2,-139.2zm56.7 89.01c0,2.13 -0.08,4 -0.27,5.56 -0.19,1.56 -0.46,2.82 -0.8,3.73 -0.34,0.95 -0.72,1.6 -1.22,1.94 -0.49,0.38 -1.07,0.57 -1.71,0.57 -0.99,0 -2.55,-0.68 -4.69,-2.02 -2.17,-1.33 -5.02,-2.81 -8.6,-4.38 -3.58,-1.56 -7.81,-3.04 -12.76,-4.37 -4.95,-1.34 -10.7,-2.02 -17.25,-2.02 -6.97,0 -13.29,1.22 -18.93,3.61 -5.67,2.44 -10.51,5.87 -14.51,10.29 -4,4.45 -7.08,9.75 -9.25,15.99 -2.17,6.21 -3.24,13.06 -3.24,20.6 0,8.27 1.1,15.54 3.28,21.86 2.2,6.29 5.29,11.54 9.21,15.81 3.96,4.22 8.72,7.42 14.24,9.59 5.56,2.17 11.7,3.24 18.36,3.24 3.27,0 6.51,-0.38 9.71,-1.1 3.24,-0.77 6.21,-1.91 8.95,-3.39l0 -33.67 -27.31 0c-1.33,0 -2.36,-0.84 -3.12,-2.51 -0.72,-1.68 -1.1,-4.49 -1.1,-8.53 0,-2.06 0.07,-3.81 0.26,-5.22 0.19,-1.41 0.5,-2.55 0.84,-3.39 0.38,-0.87 0.84,-1.48 1.33,-1.9 0.54,-0.42 1.15,-0.61 1.79,-0.61l48.75 0c1.18,0 2.25,0.19 3.16,0.61 0.95,0.42 1.75,1.03 2.48,1.86 0.68,0.8 1.25,1.79 1.6,2.94 0.38,1.18 0.57,2.51 0.57,3.99l0 57.59c0,2.24 -0.38,4.18 -1.18,5.86 -0.77,1.68 -2.36,3.01 -4.8,3.96 -2.4,0.99 -5.41,1.98 -8.99,3.05 -3.58,1.03 -7.27,1.94 -11.12,2.66 -3.81,0.76 -7.69,1.34 -11.61,1.68 -3.89,0.38 -7.81,0.57 -11.77,0.57 -11.54,0 -21.86,-1.68 -31,-4.99 -9.1,-3.31 -16.83,-8.11 -23.15,-14.39 -6.33,-6.29 -11.16,-13.94 -14.51,-23.01 -3.36,-9.06 -5.03,-19.3 -5.03,-30.77 0,-11.84 1.79,-22.46 5.37,-31.87 3.54,-9.45 8.61,-17.44 15.16,-24.03 6.55,-6.59 14.43,-11.62 23.72,-15.12 9.25,-3.5 19.57,-5.26 30.92,-5.26 6.29,0 11.96,0.42 17.1,1.3 5.11,0.88 9.6,1.9 13.45,3.16 3.8,1.22 7,2.55 9.52,3.96 2.55,1.45 4.3,2.67 5.29,3.73 1.03,1.03 1.75,2.52 2.17,4.42 0.46,1.87 0.69,4.68 0.69,8.42zm-56.7 -46.33c3.91,0 7.78,0.24 11.57,0.69l0 -19.23c-3.8,-0.38 -7.67,-0.57 -11.57,-0.57 -3.91,0 -7.77,0.19 -11.58,0.57l0 19.23c3.8,-0.45 7.66,-0.69 11.58,-0.69zm36.09 6.98c35.42,14.29 60.43,48.99 60.43,89.54 0,40.54 -25.01,75.24 -60.43,89.53l0 20.34c46.18,-15.16 79.54,-58.62 79.54,-109.87 0,-51.26 -33.36,-94.72 -79.54,-109.88l0 20.34zm-24.52 185.36c-3.79,0.46 -7.66,0.7 -11.57,0.7 -3.92,0 -7.78,-0.24 -11.58,-0.7l0 19.23c3.81,0.38 7.67,0.58 11.58,0.58 3.9,0 7.77,-0.2 11.57,-0.58l0 -19.23zm-47.67 -6.29c-35.42,-14.29 -60.42,-48.99 -60.42,-89.53 0,-40.55 25,-75.25 60.42,-89.54l0 -20.34c-46.18,15.16 -79.53,58.62 -79.53,109.88 0,51.25 33.35,94.71 79.53,109.87l0 -20.34z"/>
 </g>
</svg>
